<svg id="Calque_1" data-name="Calque 1" xmlns="http://www.w3.org/2000/svg" viewBox="0 0 323 402"><defs><style>.cls-1{fill:#2a519c;}</style></defs><g id="Groupe_673" data-name="Groupe 673"><path id="Tracé_206" data-name="Tracé 206" class="cls-1" d="M200.24,324.76l-58.68.09c-16.81,0-33.61-.09-50.42-.12H69.93a37.46,37.46,0,0,1-19.36-7.84l-.6-.6-3.82-3.85-.56-.52-.59-.59-2.72-3.85a45.06,45.06,0,0,1-4.56-14.94V232.85c0-8.71-.1-17.42-.1-26.13,0-10.09.06-20.17.08-30.26V151.17c0-5.55.15-11.1.24-16.66.81-.18.72-.94,1-1.49a41.12,41.12,0,0,1,5.52-10.28A153.15,153.15,0,0,1,87,85.05a2.19,2.19,0,0,0,1.62-1,65.37,65.37,0,0,1,16.65-6.6l1.13-.06.27,0,.22-.15h64q15,0,29.93-.09l1.16.22A69.9,69.9,0,0,1,211.35,80a35.93,35.93,0,0,1,19.34,21.68A11.33,11.33,0,0,1,230,113a138.17,138.17,0,0,0-7,11.91c-3.13,4.06-5.17,8.88-8.23,13.09-.28-3-.24-5.91-.29-8.81a161.38,161.38,0,0,0-.36-18.66,15,15,0,0,0-5.28-10.06,6.44,6.44,0,0,0-4.14-3.06,10.34,10.34,0,0,0-5.5-1.79,30.77,30.77,0,0,0-8.46-.36c-13.5-.07-27,.08-40.49.08-13,0-25.88,0-38.83-.19-2.24,0-2.71.65-2.66,2.74.16,6.06.09,12.11.11,18.16a26.78,26.78,0,0,1-7.34,17.65,30,30,0,0,1-13.84,5.51l-1.68.06a.39.39,0,0,0-.48.11c-8.52,0-17,0-25.55-.07-4.45-.05-4.47-.14-4.15,4.27a2.85,2.85,0,0,0,.29.75c-.55,13.1-.12,26.22-.25,39.32-.08,9.63.1,19.25.13,28.88v31.35c0,8.25-.17,16.5-.09,24.75.07,7.42-.43,14.84.31,22.26l.06,1.12a17.32,17.32,0,0,0,14.27,14.26h1.14a64.16,64.16,0,0,0,13.43.28c11.43.13,22.86.1,34.29.11h27.19q18.38,0,36.77-.05c4.93,0,9.87-.14,14.8-.21l1.62-.15a17.6,17.6,0,0,0,10.45-6.17,15.4,15.4,0,0,0,4-8.2,52.78,52.78,0,0,0,.24-8c0-10.26-.39-20.53.12-30.76.48-9.54-2-19.28,1.77-28.61a2.87,2.87,0,0,0,1.3-1.32q6.69-11.61,13.48-23.16c.25-.42.35-1.46,1.29-1,.63.3.33,1,.31,1.47-.19,3.76,0,7.51,0,11.27,0,16.85-.1,33.7-.11,50.54,0,8.93.22,17.77.1,26.65a36.31,36.31,0,0,1-8,22.87l-.58.56-3.85,3.9a55.7,55.7,0,0,1-8.72,5.51A45.89,45.89,0,0,1,200.24,324.76Z"/><path id="Tracé_207" data-name="Tracé 207" class="cls-1" d="M227.82,133.71a33.82,33.82,0,0,0,5.86-9.07c2.79-5.38,6.55-10.21,9.08-15.74a23.48,23.48,0,0,0,1.36-2,22.21,22.21,0,0,1,10.21-11.36,26,26,0,0,1,7.3-.64,15.24,15.24,0,0,1,10.54,10.13,17.85,17.85,0,0,1-3,12.37A85.11,85.11,0,0,0,265,125c-6,9.57-11.61,19.41-17.19,29.25a96,96,0,0,0-7.14,12.1l-14.41,24.27a50.66,50.66,0,0,0-4.87,8.65q-4.66,7.68-9.32,15.41c-1.83,3-3.64,6-5.44,9-3.24,6.1-7.18,11.76-10.69,17.68l0,0a41.63,41.63,0,0,0-5.77,7.75.29.29,0,0,0-.25.31s0,0,0,0c-.57-.1-.76.31-.95.7l-1.33,1.63-4.91,5.52-1.17,1.09c-1,.76-2.17,1.41-2.43,2.82h-.2v.2a26.86,26.86,0,0,0-5.6,4.65,7.54,7.54,0,0,0-2.76,2.25c-2.63.86-4.6,3.52-7.8,2.83l-.63-1.23-.08-.55v-2.78q.28-3.89.59-7.77l.71-2.72c.57-2,1.15-4,1.7-6,1.63-5.87,3.93-11.48,6-17.19.53-.23.4-.81.59-1.21a38.58,38.58,0,0,0,2.7-6L186.34,205l10.07-17.31a9,9,0,0,0,2.17-3.83c.48-.65,1-1.27,1.43-2q4.19-7,8.33-14.05l9.57-16.55c2.38-3.92,4.86-7.81,7.12-11.79A14.81,14.81,0,0,0,227.82,133.71Z"/><path id="Tracé_208" data-name="Tracé 208" class="cls-1" d="M244.85,176.17l1.2-1.69a52.85,52.85,0,0,0,4.87-8.23,124.54,124.54,0,0,0,8.42-14.43,150.44,150.44,0,0,0,10.45-17.58l1.13-1.71a29,29,0,0,0,3.74-6.58l4-6,1.08.07.54.25a45.26,45.26,0,0,1,4.47,6.19,20.44,20.44,0,0,1,.43,7.67,65.36,65.36,0,0,1-2.77,7.11A136.53,136.53,0,0,0,272,157.94l-10.44,17.71-5.36,8.84-2.93,3.89-4.87,2.74-2.87.53a16.45,16.45,0,0,1-5.9-.91c-1.82-.73-2.37-1.33-1.07-3.24A81.23,81.23,0,0,0,244.85,176.17Z"/><path id="Tracé_209" data-name="Tracé 209" class="cls-1" d="M195.76,169.29c-2.89,2.11-6.24,1-9.32,1.1-8.4.24-16.81,0-25.22,0-9.52,0-19,.11-28.55.11-12.63,0-25.27-.09-37.9-.12-5.59,0-11.18-.1-16.76.06a3.75,3.75,0,0,1-3.75-2,8.86,8.86,0,0,1-.38-9.13,4.59,4.59,0,0,1,4.31-2.77c12.49.1,25,0,37.45.05,14.32,0,28.65.12,43,.15H192a5.76,5.76,0,0,1,3.83,1.06l.55.81a16.61,16.61,0,0,1,.31,9.37C196.05,168.18,196,168.78,195.76,169.29Z"/><path id="Tracé_210" data-name="Tracé 210" class="cls-1" d="M188.13,183.36a123.26,123.26,0,0,1-7.3,13c-.54,1-1.28.53-1.89.53-19.47,0-38.94-.07-58.36,0-14.82,0-29.62.13-44.43.2h0c-.16-.71-.87-.54-1.3-.81l-.13-.13-1-1.62h0a11.56,11.56,0,0,1,.55-9.49.81.81,0,0,0,.53-1l.05-.05c.46.05.81,0,1-.55l.07-.09c.63-.05,1.27-.14,1.91-.14h96.53C179,183.1,183.55,183.26,188.13,183.36Z"/><path id="Tracé_211" data-name="Tracé 211" class="cls-1" d="M76,223.32a8.93,8.93,0,0,1-3-8.78,7.45,7.45,0,0,1,3-4.92c9.1,0,18.2-.05,27.29,0,10,0,20,.1,30,.1q18.87,0,37.74-.09c1.73,0,1.62.68.95,1.77a92.83,92.83,0,0,0-6,11.18c-.52,1.13-1.13.81-1.85.81-13.38,0-26.76-.11-40.15-.11C108.08,223.23,92.05,223.29,76,223.32Z"/><path id="Tracé_212" data-name="Tracé 212" class="cls-1" d="M85.17,255.64a29.47,29.47,0,0,0,1.16-6.1l1.35-6.43.25-.72.11-1.1.81-2.1a6.05,6.05,0,0,1,6.24-2.76c3.2,1.18,4.12,2.58,4.28,6.49V244l0,.56a10.54,10.54,0,0,0-.7,3.33,46,46,0,0,0-1.51,9.39,27.71,27.71,0,0,0-.56,9.3c-.12,1.13-.2,2.52,1.23,2.55s2.13-1.2,2.39-2.56a24.68,24.68,0,0,0,3.43-8.18,13.31,13.31,0,0,1,2.77-3.35,7.33,7.33,0,0,1,5.91.09,10,10,0,0,1,2.35,3.2,18.18,18.18,0,0,1-.54,6.1,3,3,0,0,0-.52,2.08c0,1.08-.24,2.32,1.17,2.71s2.07-.53,2.68-1.47,1-1.86,1.49-2.79a21.34,21.34,0,0,0,1.86-7.19c.32-.36,1-.46,1-1.11a7.19,7.19,0,0,1,7.8-1.08l2.11,2.17a45,45,0,0,1-.3,8.29c0,1.26-.1,2.84,1.27,3.17s2.15-1,2.78-2.11a3.33,3.33,0,0,0,.16-.51l2.24-1.7a6.17,6.17,0,0,1,7.14,2,7.1,7.1,0,0,1-1.45,8.3,21.07,21.07,0,0,1-5.68,4.65l-1.1.19-.54.35-1.7.21a9.22,9.22,0,0,1-6.76-1.18,5.3,5.3,0,0,0-7.37.21c-.07.05-.09.15-.13.23a21.75,21.75,0,0,1-7.23.63,11.41,11.41,0,0,1-4.48-1.62,2.62,2.62,0,0,0-3.68-.48,2.67,2.67,0,0,0-.73.87,20.52,20.52,0,0,1-4.4,1.34,12,12,0,0,1-9.84-3c-1.76-1.62-2.44-.86-3.42.54a21,21,0,0,1-7.1,2.92c-4.87-.43-6.44-2.15-6.33-6.76.44-2,1.3-3.7,3.42-4.11a8.36,8.36,0,0,0,6.24-6.36C83.7,261.23,84.36,258.41,85.17,255.64Z"/></g></svg>